<?xml version="1.0" standalone="no"?>
<!DOCTYPE svg PUBLIC "-//W3C//DTD SVG 20010904//EN"
 "http://www.w3.org/TR/2001/REC-SVG-20010904/DTD/svg10.dtd">
<svg version="1.0" xmlns="http://www.w3.org/2000/svg"
 width="300.000000pt" height="168.000000pt" viewBox="0 0 300.000000 168.000000"
 preserveAspectRatio="xMidYMid meet">

<g transform="translate(0.000000,168.000000) scale(0.100000,-0.100000)"
fill="#000000" stroke="none">
<path d="M0 840 l0 -840 1500 0 1500 0 0 840 0 840 -1500 0 -1500 0 0 -840z
m2980 0 l0 -820 -1480 0 -1480 0 0 820 0 820 1480 0 1480 0 0 -820z"/>
<path d="M1333 1185 c-38 -16 -53 -42 -53 -90 0 -36 12 -53 73 -100 22 -17 26
-28 27 -75 0 -59 12 -80 42 -80 13 0 20 10 25 30 5 26 10 30 38 30 61 0 73
-56 15 -70 l-24 -6 24 -22 c19 -17 36 -22 82 -22 50 0 62 4 90 29 32 29 33 31
36 126 3 73 0 108 -13 140 -20 53 -70 100 -122 114 -54 15 -202 13 -240 -4z"/>
<path d="M1865 1180 c-3 -5 -1 -10 4 -10 6 0 11 5 11 10 0 6 -2 10 -4 10 -3 0
-8 -4 -11 -10z"/>
<path d="M2007 1179 c7 -7 15 -10 18 -7 3 3 -2 9 -12 12 -14 6 -15 5 -6 -5z"/>
<path d="M2040 1173 c0 -15 2 -16 10 -3 6 10 10 11 10 3 0 -7 5 -13 11 -13 8
0 8 5 -1 15 -17 20 -30 19 -30 -2z"/>
<path d="M2165 1180 c-3 -5 -3 -10 2 -10 4 0 1 -5 -7 -10 -11 -7 -8 -9 13 -8
24 2 26 4 12 14 -12 9 -13 13 -3 17 9 4 9 6 1 6 -6 1 -15 -3 -18 -9z"/>
<path d="M2200 1180 c0 -5 5 -10 10 -10 6 0 10 5 10 10 0 6 -4 10 -10 10 -5 0
-10 -4 -10 -10z"/>
<path d="M2300 1183 c8 -4 21 -13 28 -22 11 -14 11 -13 2 7 -6 12 -18 22 -28
21 -14 0 -14 -2 -2 -6z"/>
<path d="M1890 1171 c0 -5 6 -11 13 -14 8 -3 14 1 14 9 0 8 -6 14 -14 14 -7 0
-13 -4 -13 -9z"/>
<path d="M1945 1170 c13 -6 15 -9 5 -9 -13 -1 -13 -2 0 -11 8 -5 20 -10 25
-10 6 0 3 5 -5 10 -13 9 -13 10 0 10 13 0 13 1 0 10 -8 5 -22 9 -30 9 -10 0
-8 -3 5 -9z"/>
<path d="M2231 1167 c-8 -10 -7 -14 2 -14 8 0 14 6 14 14 0 7 -1 13 -2 13 -2
0 -8 -6 -14 -13z"/>
<path d="M675 1160 c-3 -5 -1 -10 4 -10 6 0 11 5 11 10 0 6 -2 10 -4 10 -3 0
-8 -4 -11 -10z"/>
<path d="M2281 1157 c15 -7 24 -18 22 -27 -4 -13 -3 -13 6 0 12 17 -11 41 -38
39 -10 0 -5 -5 10 -12z"/>
<path d="M1840 1156 c0 -2 7 -7 16 -10 8 -3 12 -2 9 4 -6 10 -25 14 -25 6z"/>
<path d="M2085 1150 c-3 -6 1 -7 9 -4 18 7 21 14 7 14 -6 0 -13 -4 -16 -10z"/>
<path d="M1821 1124 c0 -11 3 -14 6 -6 3 7 2 16 -1 19 -3 4 -6 -2 -5 -13z"/>
<path d="M746 1115 c4 -8 12 -15 19 -15 7 0 15 7 19 15 4 11 -1 15 -19 15 -18
0 -23 -4 -19 -15z"/>
<path d="M1939 1093 c-13 -16 -12 -17 4 -4 16 13 21 21 13 21 -2 0 -10 -8 -17
-17z"/>
<path d="M2008 1093 c6 -2 18 -2 25 0 6 3 1 5 -13 5 -14 0 -19 -2 -12 -5z"/>
<path d="M2230 1084 c-22 -12 -23 -14 -5 -14 15 0 17 -3 7 -9 -11 -6 -10 -9 5
-13 14 -4 18 1 18 24 1 15 1 28 0 27 0 -1 -11 -7 -25 -15z"/>
<path d="M564 1078 c-4 -6 5 -22 19 -36 l26 -26 26 24 c14 13 24 29 22 34 -5
14 -85 17 -93 4z"/>
<path d="M1901 1070 c-9 -5 -5 -9 10 -13 28 -7 31 -6 14 10 -6 6 -18 8 -24 3z"/>
<path d="M1982 1066 c-13 -7 -20 -15 -16 -19 3 -3 13 0 20 8 11 11 21 12 45 3
23 -8 33 -7 42 2 9 10 9 11 0 6 -6 -3 -14 0 -16 6 -4 10 -6 10 -6 1 -1 -9 -8
-10 -24 -4 -15 6 -31 5 -45 -3z"/>
<path d="M2280 1065 c-19 -23 -8 -25 14 -4 11 11 15 19 9 19 -6 0 -16 -7 -23
-15z"/>
<path d="M2319 1063 c-13 -16 -12 -17 4 -4 9 7 17 15 17 17 0 8 -8 3 -21 -13z"/>
<path d="M1850 1066 c0 -2 7 -6 15 -10 8 -3 15 -1 15 4 0 6 -7 10 -15 10 -8 0
-15 -2 -15 -4z"/>
<path d="M2139 1058 c-11 -8 -11 -9 3 -5 9 3 18 1 21 -6 2 -8 5 -8 10 0 9 15
-17 23 -34 11z"/>
<path d="M556 978 c-14 -8 -16 -37 -16 -218 l0 -210 153 0 c118 1 156 4 171
15 25 19 57 20 50 1 -8 -21 17 -32 30 -13 9 11 17 12 29 5 21 -11 183 -6 212
7 19 8 19 7 4 -11 -35 -41 -41 -62 -25 -93 27 -51 74 -55 129 -10 21 17 40 29
43 26 3 -3 7 -70 7 -149 l2 -143 218 -3 217 -2 0 100 c0 55 2 100 5 100 3 0
18 -9 34 -21 47 -35 111 -1 111 59 0 25 -127 165 -141 156 -5 -3 -6 2 -3 10 3
9 -4 21 -20 31 -14 9 -28 25 -31 35 -13 39 -67 46 -320 38 -34 -1 -76 -20
-109 -50 -17 -15 -34 -28 -38 -28 -5 0 -8 78 -8 174 0 146 -3 177 -16 190 -14
14 -56 16 -344 15 -180 -1 -335 -6 -344 -11z m132 -7 c18 7 27 3 44 -17 12
-13 29 -24 38 -23 8 1 108 1 222 0 l207 -1 3 -167 3 -168 -299 3 c-165 1 -302
5 -305 7 -4 4 -2 261 3 351 1 18 5 20 31 14 17 -4 41 -3 53 1z m719 -297 c-3
-3 -12 -4 -19 -1 -8 3 -5 6 6 6 11 1 17 -2 13 -5z m363 -109 c0 -5 -5 -3 -10
5 -5 8 -10 20 -10 25 0 6 5 3 10 -5 5 -8 10 -19 10 -25z"/>
<path d="M624 953 c4 -4 16 -8 28 -10 28 -4 18 6 -12 12 -12 2 -20 1 -16 -2z"/>
<path d="M700 956 c0 -2 8 -10 18 -17 15 -13 16 -12 3 4 -13 16 -21 21 -21 13z"/>
<path d="M635 910 c10 -11 20 -20 23 -20 3 0 -3 9 -13 20 -10 11 -20 20 -23
20 -3 0 3 -9 13 -20z"/>
<path d="M660 918 c0 -4 4 -8 9 -8 6 0 12 4 15 8 3 5 -1 9 -9 9 -8 0 -15 -4
-15 -9z"/>
<path d="M690 905 c-7 -9 -8 -15 -2 -15 5 0 12 7 16 15 3 8 4 15 2 15 -2 0 -9
-7 -16 -15z"/>
<path d="M937 633 c-12 -11 -8 -23 8 -23 8 0 15 7 15 15 0 16 -12 20 -23 8z"/>
<path d="M2152 789 c-12 -5 -22 -17 -22 -27 0 -10 -5 -23 -12 -30 -8 -8 -8
-15 1 -26 7 -8 9 -25 6 -39 -10 -37 19 -48 127 -46 122 2 128 5 128 77 0 82
-8 89 -115 95 -50 2 -100 0 -113 -4z m44 -63 c3 -8 0 -25 -7 -37 l-12 -23 -19
23 c-14 18 -16 27 -7 37 15 18 38 18 45 0z"/>
<path d="M2202 563 c1 -43 -6 -111 -17 -165 -6 -30 -4 -38 8 -38 9 0 17 14 21
40 3 21 12 51 18 66 l12 26 12 -33 c7 -19 13 -49 13 -66 1 -23 6 -33 17 -33
13 0 15 8 10 43 l-6 42 20 -42 c23 -52 45 -58 34 -10 -4 17 -8 70 -7 117 0 79
0 80 -6 25 l-6 -60 -17 38 c-10 21 -17 48 -15 60 2 19 -3 22 -45 25 l-46 3 0
-38z"/>
<path d="M1992 498 c-12 -23 -20 -43 -18 -46 3 -2 34 -4 69 -5 72 -1 97 11 97
49 0 30 -27 44 -82 44 -40 0 -44 -3 -66 -42z"/>
<path d="M880 408 c0 -17 2 -18 15 -8 8 7 15 14 15 15 0 2 -7 5 -15 9 -10 4
-15 -1 -15 -16z"/>
<path d="M2043 418 c1 -6 -9 -14 -23 -18 -22 -6 -23 -8 -7 -15 15 -6 16 -10 5
-16 -8 -6 -1 -9 22 -9 26 0 31 3 20 10 -13 8 -12 10 3 10 11 0 17 8 17 21 0
15 5 19 15 15 8 -3 15 -1 15 4 0 6 -16 10 -35 10 -21 0 -34 -5 -32 -12z"/>
<path d="M2101 384 c0 -11 3 -14 6 -6 3 7 2 16 -1 19 -3 4 -6 -2 -5 -13z"/>
<path d="M973 363 c15 -2 37 -2 50 0 12 2 0 4 -28 4 -27 0 -38 -2 -22 -4z"/>
<path d="M1183 363 c15 -2 39 -2 55 0 15 2 2 4 -28 4 -30 0 -43 -2 -27 -4z"/>
</g>
</svg>
