<?xml version="1.0" standalone="no"?>
<!DOCTYPE svg PUBLIC "-//W3C//DTD SVG 20010904//EN"
 "http://www.w3.org/TR/2001/REC-SVG-20010904/DTD/svg10.dtd">
<svg version="1.0" xmlns="http://www.w3.org/2000/svg"
 width="299.000000pt" height="169.000000pt" viewBox="0 0 299.000000 169.000000"
 preserveAspectRatio="xMidYMid meet">

<g transform="translate(0.000000,169.000000) scale(0.100000,-0.100000)"
fill="#000000" stroke="none">
<path d="M573 1680 c-29 -12 -43 -40 -43 -89 l0 -41 1010 0 1010 0 0 41 c0 31
-6 47 -29 70 l-29 29 -949 -1 c-521 0 -958 -4 -970 -9z m156 -44 c15 -18 3
-46 -20 -46 -25 0 -35 26 -19 45 15 19 24 19 39 1z m87 -7 c8 -14 -21 -43 -35
-35 -19 12 -13 46 8 46 11 0 23 -5 27 -11z"/>
<path d="M2832 1273 c-24 -24 -24 -25 -2 -8 42 33 44 35 37 35 -4 0 -19 -12
-35 -27z"/>
<path d="M2163 1227 c-33 -17 -36 -46 -7 -72 13 -12 24 -27 24 -34 0 -6 14
-11 31 -11 25 0 32 6 45 35 19 45 18 51 -8 75 -24 22 -50 24 -85 7z"/>
<path d="M2771 1224 c0 -11 3 -14 6 -6 3 7 2 16 -1 19 -3 4 -6 -2 -5 -13z"/>
<path d="M2811 1220 c-13 -11 -19 -20 -14 -20 6 0 18 9 28 20 23 25 17 25 -14
0z"/>
<path d="M1898 1148 c-16 -12 -16 -16 10 -55 21 -34 42 -49 97 -74 l70 -32 -6
-71 c-4 -39 -10 -103 -14 -143 l-8 -72 34 9 c19 6 35 10 36 10 2 0 3 -12 3
-27 0 -40 29 -253 50 -358 9 -49 16 -106 14 -125 -1 -19 1 -41 6 -49 5 -10 2
-20 -8 -28 -15 -11 -15 -14 -2 -23 8 -5 30 -10 48 -10 l33 0 -6 42 c-20 155
-32 439 -16 422 19 -20 83 -212 88 -264 3 -30 9 -59 13 -65 10 -12 8 -65 -3
-82 -9 -15 22 -33 57 -33 24 0 24 1 21 68 -4 81 -19 166 -36 207 -16 41 -29
112 -38 220 -4 50 -11 98 -16 108 -5 13 -2 17 14 17 33 0 35 24 7 84 -32 67
-34 127 -5 180 17 31 19 49 14 85 -4 25 -12 49 -18 53 -16 10 -36 -10 -31 -30
6 -24 -41 -45 -57 -26 -14 17 -55 19 -65 3 -4 -7 -21 -9 -42 -5 -26 4 -38 1
-47 -11 -20 -27 -100 1 -145 49 -31 33 -38 37 -52 26z"/>
<path d="M2731 1138 c-1 -16 4 -28 10 -28 5 0 7 -6 3 -12 -4 -7 5 -2 19 11 15
14 27 29 27 35 0 6 -9 0 -19 -13 l-18 -24 -11 29 -10 29 -1 -27z"/>
<path d="M452 1111 c2 -17 1 -28 -2 -26 -14 9 -8 -54 6 -66 24 -20 16 -29 -26
-29 -29 0 -52 -9 -83 -31 l-42 -31 -24 54 c-14 29 -24 56 -23 61 2 6 -7 9 -25
6 -3 0 -10 6 -15 15 -5 9 -21 16 -36 16 -24 -1 -22 -4 21 -26 39 -20 46 -28
37 -39 -8 -10 -7 -27 5 -69 9 -31 20 -58 24 -61 14 -8 65 -8 85 0 16 7 18 5
11 -26 -4 -19 -20 -60 -36 -93 -33 -66 -27 -93 20 -102 27 -6 29 -10 34 -72 4
-36 11 -68 16 -71 5 -4 13 -18 16 -34 4 -15 10 -25 14 -23 4 3 8 -43 9 -102 2
-83 -2 -123 -17 -176 -22 -74 -21 -86 10 -86 15 0 19 7 19 34 0 53 11 94 27
100 10 4 13 1 9 -12 -3 -9 -6 -42 -8 -72 -2 -50 0 -55 20 -58 20 -3 22 1 22
47 0 27 -4 53 -10 56 -6 4 -8 -10 -5 -37 3 -28 2 -38 -4 -29 -8 13 -6 164 4
274 5 61 25 117 41 117 13 0 18 20 30 102 3 26 12 49 20 52 8 3 14 1 14 -4 0
-22 17 -7 43 39 32 57 34 99 8 132 -32 42 -50 85 -44 107 3 13 1 22 -6 22 -6
0 -11 9 -11 19 0 11 -5 23 -11 27 -6 3 -9 19 -5 35 4 21 -1 35 -22 58 -22 26
-34 31 -70 31 -43 0 -44 -1 -40 -29z m38 -64 c0 -7 -4 -6 -10 3 -6 10 -10 11
-10 3 0 -7 -5 -13 -11 -13 -8 0 -8 5 1 15 13 16 30 11 30 -8z m4 -72 c-4 -15
-2 -25 4 -25 6 0 13 8 15 18 3 10 5 6 6 -10 0 -16 5 -28 10 -28 15 0 24 -115
12 -139 -10 -17 -21 -21 -63 -21 l-51 0 7 71 c7 81 12 94 30 80 9 -8 18 -6 32
5 14 12 15 14 3 11 -12 -4 -16 1 -14 21 3 36 4 42 10 42 3 0 3 -11 -1 -25z
m-27 -27 c-3 -7 -5 -2 -5 12 0 14 2 19 5 13 2 -7 2 -19 0 -25z m153 -139 c11
-25 10 -35 -1 -57 -8 -15 -19 -30 -26 -35 -7 -4 -10 -14 -7 -22 4 -9 0 -15 -9
-15 -12 0 -15 8 -12 33 3 17 7 53 10 80 7 55 26 62 45 16z m-173 -314 c8 -9
13 -18 11 -21 -3 -2 -13 5 -23 16 -21 23 -11 27 12 5z m30 9 c-3 -3 -12 -4
-19 -1 -8 3 -5 6 6 6 11 1 17 -2 13 -5z m-13 -79 c3 -8 1 -15 -4 -15 -6 0 -10
7 -10 15 0 8 2 15 4 15 2 0 6 -7 10 -15z m7 -102 c-12 -20 -14 -14 -5 12 4 9
9 14 11 11 3 -2 0 -13 -6 -23z"/>
<path d="M2706 1080 c12 -46 26 -55 46 -30 10 12 18 27 18 34 0 6 -9 0 -20
-14 -11 -14 -20 -20 -20 -14 0 5 -7 19 -16 30 -14 18 -15 18 -8 -6z"/>
<path d="M2691 1019 c-1 -9 8 -27 19 -40 l20 -24 25 28 c14 15 25 33 25 40 0
13 -39 -32 -40 -45 0 -19 -18 -5 -33 25 -9 18 -16 25 -16 16z"/>
<path d="M2676 950 c3 -14 15 -34 26 -45 19 -20 19 -20 44 8 13 15 24 33 24
40 -1 7 -12 -1 -26 -18 -20 -25 -26 -27 -34 -15 -5 8 -16 24 -25 35 -16 20
-16 19 -9 -5z"/>
<path d="M2660 897 c0 -13 28 -63 43 -75 11 -9 22 -5 53 22 21 19 36 37 33 40
-4 4 -21 -5 -38 -20 l-32 -27 -29 34 c-16 19 -29 30 -30 26z"/>
<path d="M2661 808 c6 -13 20 -33 31 -45 19 -20 22 -21 44 -7 28 19 59 64 44
64 -6 0 -24 -14 -39 -31 l-28 -30 -21 35 c-24 40 -51 52 -31 14z"/>
<path d="M2640 753 c0 -11 31 -56 44 -65 19 -14 35 -8 68 22 39 34 17 43 -25
10 l-26 -21 -11 20 c-11 22 -50 47 -50 34z"/>
<path d="M2620 672 c0 -5 10 -18 23 -29 39 -37 157 -44 126 -7 -14 17 -41 18
-58 2 -10 -11 -16 -8 -33 15 -18 25 -58 38 -58 19z"/>
<path d="M1086 625 c-23 -34 -17 -61 12 -58 13 2 33 -6 44 -17 12 -11 32 -20
45 -20 19 0 23 5 23 30 0 49 -20 80 -51 80 -15 0 -34 2 -42 6 -8 3 -21 -6 -31
-21z"/>
<path d="M2606 612 c-10 -17 25 -52 63 -63 40 -12 91 -6 91 11 0 15 -38 22
-59 10 -17 -9 -24 -7 -38 10 -23 27 -50 42 -57 32z"/>
<path d="M2585 520 c18 -20 55 -28 55 -12 0 16 -24 32 -49 32 -23 0 -24 -1 -6
-20z"/>
<path d="M1185 425 l-7 -95 -34 0 c-19 0 -33 3 -33 8 4 26 -1 34 -16 22 -8 -7
-12 -16 -9 -21 3 -5 -2 -9 -11 -9 -10 0 -13 5 -9 12 4 6 3 8 -3 5 -13 -8 -4
-67 10 -67 6 0 8 -2 5 -5 -3 -3 -22 2 -42 10 -30 13 -45 14 -71 5 -54 -18 -59
-32 -25 -65 23 -22 30 -38 30 -67 l0 -39 46 7 c25 3 55 2 67 -4 12 -5 46 -14
75 -19 47 -9 52 -8 52 9 0 14 8 18 35 18 25 0 37 6 47 23 l12 22 7 -25 c7 -25
7 -25 8 -2 1 15 9 26 21 29 25 7 26 6 -10 58 -27 40 -30 51 -30 125 0 45 -5
90 -10 101 -9 15 -77 59 -94 59 -2 0 -7 -43 -11 -95z m-32 -162 c-7 -2 -21 -2
-30 0 -10 3 -4 5 12 5 17 0 24 -2 18 -5z"/>
<path d="M2647 506 c-4 -11 -5 -21 -2 -24 3 -3 5 -2 5 3 0 4 7 2 15 -5 8 -7
22 -10 30 -6 9 3 13 2 10 -4 -7 -11 8 -14 18 -3 11 11 -14 33 -38 33 -13 0
-25 5 -27 12 -3 7 -7 5 -11 -6z"/>
<path d="M1097 454 l17 -36 8 28 c9 33 3 44 -22 44 -19 0 -19 -1 -3 -36z"/>
<path d="M2550 465 c0 -8 3 -15 8 -16 4 0 17 -2 30 -5 24 -4 29 5 10 24 -17
17 -48 15 -48 -3z"/>
<path d="M2610 430 c-8 -16 -7 -18 4 -14 8 3 17 1 21 -5 3 -6 20 -11 37 -11
25 0 28 2 19 14 -7 8 -25 19 -42 25 -24 8 -30 7 -39 -9z"/>
<path d="M2546 402 c-7 -12 64 -92 81 -92 20 0 7 40 -20 62 -12 10 -27 22 -34
28 -15 12 -20 13 -27 2z"/>
<path d="M2550 307 c0 -23 11 -47 21 -47 15 0 10 37 -6 50 -12 10 -15 10 -15
-3z"/>
</g>
</svg>
